<svg width="24" height="24" viewBox="0 0 24 24" fill="none" xmlns="http://www.w3.org/2000/svg">
<path fill-rule="evenodd" clip-rule="evenodd" d="M13.67 4.24C14.5 5.27 15 6.58 15 8C15 9.42 14.5 10.73 13.67 11.76C13.71 11.77 13.74 11.78 13.77 11.79C14.16 11.91 14.57 12 15 12C17.21 12 19 10.21 19 8C19 5.79 17.21 4 15 4C14.53 4 14.09 4.1 13.67 4.24ZM19 17C19 15.32 18.03 14.06 16.66 13.13C19.42 13.53 23 14.82 23 17L23 20L19 20L19 17ZM9 6C7.9 6 7 6.9 7 8C7 9.1 7.9 10 9 10C10.1 10 11 9.1 11 8C11 6.9 10.1 6 9 6ZM3 17.01C3.2 16.29 6.3 15 9 15C11.7 15 14.8 16.29 15 17L15 18L3 18L3 17.01ZM9 4C11.21 4 13 5.79 13 8C13 10.21 11.21 12 9 12C6.79 12 5 10.21 5 8C5 5.79 6.79 4 9 4ZM17 17C17 14.34 11.67 13 9 13C6.33 13 1 14.34 1 17L1 20L17 20L17 17Z" fill="#1F1F1F"/>
</svg>
