<svg width="24" height="24" viewBox="0 0 24 24" fill="none" xmlns="http://www.w3.org/2000/svg">
<path fill-rule="evenodd" clip-rule="evenodd" d="M12 2C16.1982 2 20 5.21596 20 10.1963C20 13.5165 17.3333 17.4511 12 22C6.66667 17.4511 4 13.5165 4 10.1963C4 5.21596 7.80181 2 12 2ZM18 10.1963C18 6.56601 15.3464 4 12 4C8.6536 4 6 6.56601 6 10.1963C6 12.5409 7.95247 15.6378 12 19.334C16.0475 15.6378 18 12.5409 18 10.1963ZM14 10C14 11.1046 13.1046 12 12 12C10.8954 12 10 11.1046 10 10C10 8.89543 10.8954 8 12 8C13.1046 8 14 8.89543 14 10Z" fill="#1F1F1F"/>
</svg>
