<svg width="49" height="48" viewBox="0 0 49 48" fill="none" xmlns="http://www.w3.org/2000/svg">
<path fill-rule="evenodd" clip-rule="evenodd" d="M25 48C38.2548 48 49 37.2548 49 24C49 10.7452 38.2548 0 25 0C11.7452 0 1 10.7452 1 24C1 37.2548 11.7452 48 25 48Z" fill="#DC362E"/>
<path d="M25.0005 14.1667C29.5482 14.1669 33.6673 17.6506 33.6675 23.0456C33.6675 26.6424 30.7779 30.9049 25.0005 35.8327C19.2229 30.9048 16.3335 26.6425 16.3335 23.0456C16.3337 17.6505 20.4526 14.1668 25.0005 14.1667ZM25.0005 16.3327C21.3755 16.3328 18.5007 19.1131 18.5005 23.0456C18.5005 25.5856 20.6157 28.9408 25.0005 32.945C29.385 28.9409 31.5005 25.5855 31.5005 23.0456C31.5003 19.1132 28.6254 16.333 25.0005 16.3327ZM26.0835 28.2497H23.9165V26.0827H26.0835V28.2497ZM26.0835 23.9167H23.9165V18.4997H26.0835V23.9167Z" fill="white"/>
</svg>
