<svg width="52" height="52" viewBox="0 0 52 52" fill="none" xmlns="http://www.w3.org/2000/svg">
<path fill-rule="evenodd" clip-rule="evenodd" d="M14.4196 33.5999V38.0195C14.4196 38.8887 15.1308 39.5999 16 39.5999H17.749C18.6182 39.5999 19.3293 38.8887 19.3293 38.0195V36.4391H38.4V37.9999C38.4 38.8691 39.0052 39.5999 39.8744 39.5999H41.4548C42.324 39.5999 43.2 38.8691 43.2 37.9999V25.1999L40 15.9999C39.6839 15.0675 38.643 14.3999 37.6 14.3999H25.0298C25.8267 15.3767 26.3951 16.4362 26.7419 17.5999H37.2L38.8 22.3999H30.9567C31.0202 22.467 31.0828 22.536 31.1443 22.6071C31.7834 23.3447 32.2574 24.2434 32.5308 25.1999H40V33.5999H26.5708C26.5681 33.5999 26.5653 33.5999 26.5626 33.5999H14.4196Z" fill="white"/>
<path d="M35.9529 31.6C37.2784 31.6 38.3529 30.5255 38.3529 29.2C38.3529 27.8746 37.2784 26.8 35.9529 26.8C34.6274 26.8 33.5529 27.8746 33.5529 29.2C33.5529 30.5255 34.6274 31.6 35.9529 31.6Z" fill="white"/>
<path d="M12 31.6C10.3454 31.6 8.77272 30.755 7.6 29.6C6.6 28.4 6 27.3008 6 25.6325C6 24.2025 6.45688 22.9725 7.2 22C8.05456 20.8817 9.4182 19.9117 10.8 19.6C11.2546 17.9133 12 16.6125 13.3636 15.5675C14.7273 14.5225 16.2727 14 18 14C20.1273 14 21.9318 14.7471 23.4136 16.2412C24.8954 17.7354 25.6 19.455 25.6 21.6C26.8546 21.7467 27.9727 22.2558 28.8 23.2C29.6273 24.1442 30 25.385 30 26.65C30 28.025 29.5227 29.1938 28.5682 30.1562C27.6136 31.1188 26.4546 31.6 25.0909 31.6H12Z" fill="white"/>
</svg>
