<svg width="26" height="26" viewBox="0 0 26 26" fill="none" xmlns="http://www.w3.org/2000/svg">
<defs>
<linearGradient id="paint0_linear_3433_111898" x1="4.12812" y1="17.71" x2="17.624" y2="6.30213" gradientUnits="userSpaceOnUse">
<stop stop-color="#346BF1"/>
<stop offset="0.3777" stop-color="#3186FF"/>
<stop offset="0.7748" stop-color="#4E9FFF"/>
<stop offset="0.7965" stop-color="#4FA0FF"/>
</linearGradient>
</defs>
<g transform="translate(3, 0)">
<path d="M9.7002 16.2333C8.56686 16.2333 7.6002 15.8333 6.8002 15.0333C6.02242 14.2333 5.63353 13.2667 5.63353 12.1333V4.06667C5.63353 2.93333 6.02242 1.97778 6.8002 1.2C7.6002 0.399998 8.56686 -1.90735e-06 9.7002 -1.90735e-06C10.8335 -1.90735e-06 11.7891 0.399998 12.5669 1.2C13.3669 1.97778 13.7669 2.93333 13.7669 4.06667V12.1333C13.7669 13.2667 13.3669 14.2333 12.5669 15.0333C11.7891 15.8333 10.8335 16.2333 9.7002 16.2333ZM8.36686 24.6V21.6667C6.23353 21.4 4.38908 20.5111 2.83353 19C1.3002 17.4889 0.389084 15.6556 0.100196 13.5C0.033529 13.1222 0.122418 12.8 0.366862 12.5333C0.633529 12.2667 0.955751 12.1333 1.33353 12.1333C1.71131 12.1333 2.02242 12.2667 2.26686 12.5333C2.53353 12.7778 2.71131 13.0889 2.8002 13.4667C3.11131 15.1333 3.92242 16.4889 5.23353 17.5333C6.54464 18.5778 8.03353 19.1 9.7002 19.1C11.3891 19.1 12.878 18.5778 14.1669 17.5333C15.478 16.4667 16.2891 15.1111 16.6002 13.4667C16.6891 13.0889 16.8669 12.7778 17.1335 12.5333C17.4002 12.2667 17.7224 12.1333 18.1002 12.1333C18.4558 12.1333 18.7558 12.2667 19.0002 12.5333C19.2669 12.8 19.3669 13.1222 19.3002 13.5C19.0113 15.6333 18.1002 17.4667 16.5669 19C15.0335 20.5111 13.1891 21.4 11.0335 21.6667V24.6C11.0335 24.9778 10.9002 25.3 10.6335 25.5667C10.3891 25.8111 10.078 25.9333 9.7002 25.9333C9.32242 25.9333 9.0002 25.8111 8.73353 25.5667C8.48908 25.3 8.36686 24.9778 8.36686 24.6Z" fill="url(#paint0_linear_3433_111898)"/>
</g>
</svg>
