<svg width="53" height="53" viewBox="0 0 53 53" fill="none" xmlns="http://www.w3.org/2000/svg">
<path fill-rule="evenodd" clip-rule="evenodd" d="M33.3907 27.7494L30.4115 21.7911H18.5925L15.6134 27.7494H33.3907ZM17.731 33.7078C18.778 33.7078 19.6268 32.859 19.6268 31.8119C19.6268 30.7649 18.778 29.9161 17.731 29.9161C16.6839 29.9161 15.8351 30.7649 15.8351 31.8119C15.8351 32.859 16.6839 33.7078 17.731 33.7078ZM31.2726 33.7078C32.3197 33.7078 33.1685 32.859 33.1685 31.8119C33.1685 30.7649 32.3197 29.9161 31.2726 29.9161C30.2256 29.9161 29.3768 30.7649 29.3768 31.8119C29.3768 32.859 30.2256 33.7078 31.2726 33.7078ZM36.4185 29.9161V37.7703C36.4185 38.8173 35.5697 39.6661 34.5226 39.6661C33.4756 39.6661 32.6268 38.8173 32.6268 37.7703V36.4161H16.3768V37.7703C16.3768 38.8173 15.528 39.6661 14.481 39.6661C13.4339 39.6661 12.5851 38.8173 12.5851 37.7703V29.9161H11.5018C10.9035 29.9161 10.4185 29.4311 10.4185 28.8328C10.4185 28.2345 10.9035 27.7494 11.5018 27.7494H12.5851L16.3196 20.2805C16.6866 19.5464 17.4369 19.0828 18.2575 19.0828H30.746C31.5667 19.0828 32.317 19.5464 32.684 20.2805L36.4185 27.7494H37.5018C38.1001 27.7494 38.5851 28.2345 38.5851 28.8328C38.5851 29.4311 38.1001 29.9161 37.5018 29.9161H36.4185Z" fill="white"/>
<path fill-rule="evenodd" clip-rule="evenodd" d="M37.3263 14.5642L39.2417 18.3949H33.9354L36.9357 23.9669H38.7506V24.8375C38.7506 25.5106 39.2963 26.0563 39.9695 26.0563C40.6426 26.0563 41.1883 25.5106 41.1883 24.8375V19.7879H41.8848C42.2695 19.7879 42.5813 19.4761 42.5813 19.0914C42.5813 18.7068 42.2695 18.3949 41.8848 18.3949H41.1883L38.7874 13.593C38.5514 13.1211 38.0691 12.823 37.5415 12.823H29.5124C28.9848 12.823 28.5024 13.1211 28.2665 13.593L26.605 16.916H28.5518L29.7277 14.5642H37.3263ZM39.0988 21.0067C39.0988 21.6798 38.5531 22.2256 37.88 22.2256C37.2068 22.2256 36.6611 21.6798 36.6611 21.0067C36.6611 20.3335 37.2068 19.7878 37.88 19.7878C38.5531 19.7878 39.0988 20.3335 39.0988 21.0067Z" fill="white"/>
</svg>
