<svg width="49" height="48" viewBox="0 0 49 48" fill="none" xmlns="http://www.w3.org/2000/svg">
<path d="M14.8944 28.7793C15.6811 28.7793 16.0146 28.9776 16.5399 29.29L16.5555 29.2993C17.2055 29.6893 18.1011 30.2237 19.7044 30.2237C21.3078 30.2237 22.2033 29.6893 22.8533 29.2993C23.3878 28.9671 23.7055 28.7793 24.5144 28.7793C25.3011 28.7793 25.6346 28.9776 26.1599 29.29L26.1755 29.2993C26.8255 29.6893 27.7211 30.2237 29.3244 30.2237C30.9278 30.2237 31.8233 29.6893 32.4733 29.2993C33.0078 28.9671 33.3255 28.7793 34.1344 28.7793C34.9211 28.7793 35.2546 28.9776 35.7799 29.29L35.7955 29.2993C36.4455 29.6893 37.3267 30.2093 38.9155 30.2237V27.3348C38.1289 27.3348 37.7954 27.1366 37.27 26.8241L37.2544 26.8148C36.6044 26.4248 35.7089 25.8904 34.1055 25.8904C32.5022 25.8904 31.6067 26.4248 30.9567 26.8148C30.4222 27.1471 30.09 27.3348 29.2955 27.3348C28.5089 27.3348 28.1754 27.1366 27.65 26.8241L27.6344 26.8148C26.9844 26.4248 26.0889 25.8904 24.4855 25.8904C22.8822 25.8904 21.9867 26.4248 21.3367 26.8148C20.8022 27.1471 20.4844 27.3348 19.6755 27.3348C18.8889 27.3348 18.5554 27.1366 18.03 26.8241L18.0144 26.8148C17.3644 26.4248 16.4689 25.8904 14.8655 25.8904C13.2622 25.8904 12.3667 26.4248 11.7167 26.8148C11.1822 27.1471 10.8644 27.3348 10.0555 27.3348V30.2237C11.6258 30.2237 12.5172 29.7111 13.191 29.3236L13.2333 29.2993C13.7678 28.9671 14.1 28.7793 14.8944 28.7793Z" fill="white"/>
<path d="M30.9855 33.3148C31.6355 32.9248 32.5311 32.3904 34.1344 32.3904C35.7378 32.3904 36.6333 32.9248 37.2833 33.3148C37.8178 33.6471 38.1355 33.8349 38.9444 33.8349V36.7237C37.3411 36.7237 36.4455 36.1893 35.7955 35.7993L35.78 35.79C35.2546 35.4776 34.9211 35.2793 34.1344 35.2793C33.3255 35.2793 33.0078 35.4671 32.4733 35.7993L32.438 35.82C31.7776 36.2079 30.8996 36.7237 29.3244 36.7237C27.7211 36.7237 26.8255 36.1893 26.1755 35.7993L26.1599 35.79C25.6346 35.4776 25.3011 35.2793 24.5144 35.2793C23.7055 35.2793 23.3878 35.4671 22.8533 35.7993L22.835 35.81C22.1724 36.199 21.2787 36.7237 19.69 36.7237C18.0867 36.7237 17.1911 36.1893 16.5411 35.7993C16.0067 35.4671 15.6744 35.2793 14.88 35.2793C14.0855 35.2793 13.7533 35.4671 13.2189 35.7993L13.2006 35.81C12.538 36.199 11.6442 36.7237 10.0555 36.7237V33.8349C10.8644 33.8349 11.1822 33.6471 11.7167 33.3148L11.7349 33.3041C12.3975 32.9151 13.2913 32.3904 14.88 32.3904C16.4833 32.3904 17.3789 32.9248 18.0289 33.3148C18.5633 33.6471 18.8811 33.8349 19.69 33.8349C20.4989 33.8349 20.8167 33.6471 21.3511 33.3148L21.3694 33.3041C22.032 32.9151 22.9258 32.3904 24.5144 32.3904C26.1178 32.3904 27.0133 32.9248 27.6633 33.3148L27.6789 33.3241C28.2043 33.6366 28.5377 33.8349 29.3244 33.8349C30.1189 33.8349 30.4511 33.6471 30.9855 33.3148Z" fill="white"/>
<path fill-rule="evenodd" clip-rule="evenodd" d="M32.7781 13.7771C33.5563 13.9253 34.1223 14.5461 34.2257 15.2866L35.3339 22.8159L35.0124 24.5048C34.7444 24.4674 34.4517 24.446 34.1307 24.446C33.5009 24.446 32.9803 24.5285 32.5409 24.6522L32.9758 22.367L16.4692 19.2253L15.4709 24.4707C15.2884 24.4547 15.0953 24.446 14.8907 24.446C14.0965 24.446 13.4759 24.5771 12.9729 24.7569L14.1112 18.7765L17.9078 12.1808C18.2878 11.5323 19.0305 11.1605 19.8087 11.3086L32.7781 13.7771ZM31.9048 16.0544L19.7725 13.7453L17.8012 17.1697L32.4803 19.9636L31.9048 16.0544Z" fill="white"/>
<path d="M19.2579 25.8648C19.1515 25.8512 19.0544 25.8324 18.9633 25.8088L19.2579 25.8648Z" fill="white"/>
<path d="M31.2005 25.2405C31.1244 25.2849 31.0517 25.3285 30.9818 25.3704C30.4473 25.7027 30.1151 25.8904 29.3207 25.8904C28.6039 25.8904 28.2634 25.7258 27.8111 25.4602C27.6752 25.1424 27.6291 24.7821 27.6986 24.417C27.8845 23.4402 28.827 22.7991 29.8038 22.9851C30.7805 23.171 31.4216 24.1135 31.2357 25.0902C31.226 25.1413 31.2143 25.1914 31.2005 25.2405Z" fill="white"/>
<path d="M20.6244 23.0705C20.4385 24.0473 19.496 24.6884 18.5192 24.5025C17.5425 24.3166 16.9014 23.3741 17.0873 22.3973C17.2732 21.4206 18.2157 20.7795 19.1924 20.9654C20.1692 21.1513 20.8103 22.0938 20.6244 23.0705Z" fill="white"/>
</svg>
