<svg width="32" height="32" viewBox="0 0 32 32" fill="none" xmlns="http://www.w3.org/2000/svg">
<path fill-rule="evenodd" clip-rule="evenodd" d="M17.6813 1.48714C16.9211 0.170304 15.0204 0.170301 14.2601 1.48714L0.952472 24.5366C0.192196 25.8535 1.14254 27.4995 2.66309 27.4995H29.2784C30.7989 27.4995 31.7492 25.8535 30.989 24.5366L17.6813 1.48714ZM15.7995 4.50198C15.8755 4.3703 16.0656 4.3703 16.1416 4.50198L27.6081 24.3625C27.6841 24.4942 27.5891 24.6588 27.4371 24.6588H4.50408C4.35203 24.6588 4.25699 24.4942 4.33302 24.3625L15.7995 4.50198ZM17.16 22.0797H14.7808V18.5109H11.212V16.1317H14.7808V12.563H17.16V16.1317H20.7288V18.5109H17.16V22.0797Z" fill="#1F1F1F"/>
</svg>