<?xml version="1.0" encoding="UTF-8"?>
<svg width="52px" height="52px" viewBox="0 0 52 52" version="1.1" xmlns="http://www.w3.org/2000/svg" xmlns:xlink="http://www.w3.org/1999/xlink">
    <title>Artboard</title>
    <g id="Artboard" stroke="none" stroke-width="1" fill="none" fill-rule="evenodd">
        <path d="M30.4190536,10.8128324 L19.0163343,10.8128324 L21.32546,13.093409 L30.4190536,13.093409 L30.4190536,10.8128324 Z M28.1385098,22.2155845 L23.0073134,22.2155845 L21.2968782,22.2155845 L20.478806,22.2155845 L20.2738244,22.0435482 C19.9276792,21.7530393 19.4115704,21.7982029 19.1210615,22.1443482 L15.7405548,26.1731817 L12.1651028,22.4706388 C11.8512484,22.1456572 11.3332852,22.1366027 11.0081945,22.450457 L9.31447203,24.086165 C8.98942499,24.4000193 8.98038136,24.9179826 9.29427932,25.2430733 L13.4199746,29.5152885 C13.4643746,29.662452 13.5506654,29.7988155 13.6772108,29.90507 L14.3050285,30.4318696 L15.2864097,31.4481598 C15.5843367,31.7566687 16.0661909,31.7804505 16.3923725,31.5137234 C16.4820452,31.4658325 16.5642997,31.400378 16.6335724,31.3176872 L16.7799723,31.1431419 L18.1370622,29.8326337 C18.3074621,29.6682338 18.3909166,29.4477612 18.3867711,29.2283796 L21.2968782,25.7601638 L21.2968782,33.6181947 L28.1385098,22.2155845 Z M33.889233,22.2155845 L30.4190536,22.2155845 L23.5774221,33.6181947 L30.4190536,33.6181947 L30.4190536,35.8987385 L21.2968782,35.8987385 L21.2968782,40.4598263 L30.4190536,40.4598263 L30.9891623,40.4598263 L34.9801414,40.4598263 L34.9801414,23.3064928 C34.9801414,22.7039841 34.4917417,22.2155845 33.889233,22.2155845 Z M21.3113873,15.3739529 L30.4190536,15.3739529 L30.4190536,17.6544967 C30.4190536,17.6544967 30.0605812,21.075258 25.8579659,21.075258 C21.6553507,21.075258 21.2968782,17.6544967 21.2968782,17.6544967 L19.0163343,17.6544967 L21.3113873,15.3739529 Z" id="Shape" fill="#FFFFFF"></path>
    </g>
</svg>