<svg width="53" height="53" viewBox="0 0 53 53" fill="none" xmlns="http://www.w3.org/2000/svg">
<path fill-rule="evenodd" clip-rule="evenodd" d="M9.02745 35.5601C7.73002 32.9493 7.00049 30.0065 7.00049 26.8934C7.00049 24.2037 7.54506 21.6412 8.52996 19.3101H17.8338L24.3338 26.8934H35.1672L37.3338 29.0601V35.5601H30.8338C30.8338 38.5516 28.4087 40.9767 25.4172 40.9767C22.4256 40.9767 20.0005 38.5516 20.0005 35.5601H9.02745V35.5601ZM11.334 26.8935H21.4803L16.8375 21.4768H11.334V26.8935ZM25.4177 38.8099C27.2127 38.8099 28.6677 37.3549 28.6677 35.5599C28.6677 33.765 27.2127 32.3099 25.4177 32.3099C23.6228 32.3099 22.1677 33.765 22.1677 35.5599C22.1677 37.3549 23.6228 38.8099 25.4177 38.8099ZM38.026 27.1368L40.404 22.4541L35.9287 23.238L34.9016 18.8121L31.9771 22.2893L28.3454 19.5591L28.3387 24.7266H26.5012L26.5131 15.8873L31.69 19.7774L35.858 14.8215L37.3233 21.1292L43.7018 20.0119L39.3914 28.5022L38.026 27.1368Z" fill="white"/>
</svg>
