<svg width="53" height="53" viewBox="0 0 53 53" fill="none" xmlns="http://www.w3.org/2000/svg">
<path fill-rule="evenodd" clip-rule="evenodd" d="M34.2476 17.0498L35.9595 15.3379C41.1483 20.5134 41.1483 28.9269 35.9595 34.1157L34.2476 32.4038C38.4809 28.1705 38.4809 21.2831 34.2476 17.0498ZM30.8369 20.4604L32.5488 18.7485C35.8399 22.0396 35.8399 27.4009 32.5488 30.692L30.8369 28.9934C33.1858 26.6312 33.1858 22.8093 30.8369 20.4604ZM13.501 22.8934C13.501 21.5127 14.6203 20.3934 16.001 20.3934H28.6676V29.0601H22.1664L19.9998 37.7265H15.6665L17.8331 29.0601H16.001C14.6203 29.0601 13.501 27.9408 13.501 26.5601V22.8934Z" fill="white"/>
</svg>
