<svg xmlns="http://www.w3.org/2000/svg" xml:space="preserve" width="130" height="130"><path fill="#FFF" fill-rule="evenodd" d="m39.87 36.77-5.28 5.77h-9.14c-3.17 0-5.77 2.59-5.77 5.77v38.84c0 3.17 2.59 5.77 5.77 5.77h46.12c3.17 0 5.77-2.59 5.77-5.77V48.3c0-3.17-2.59-5.77-5.77-5.77h-9.14l-5.28-5.77H39.87zm8.64 39.41c5.09 0 9.22-4.13 9.22-9.22s-4.13-9.22-9.22-9.22-9.22 4.13-9.22 9.22 4.13 9.22 9.22 9.22m.01 5.19c-7.96 0-14.41-6.46-14.41-14.41 0-7.96 6.46-14.41 14.41-14.41 7.96 0 14.41 6.46 14.41 14.41s-6.46 14.41-14.41 14.41M89.03 50.3l-4.38 4.38c6.01 6.01 6.01 15.79 0 21.83l4.38 4.35c8.42-8.42 8.42-22.14 0-30.56" clip-rule="evenodd"/><path fill="#FFF" fill-rule="evenodd" d="m97.75 41.57-4.38 4.38c10.83 10.83 10.83 28.45 0 39.29l4.38 4.38c13.28-13.28 13.28-34.81 0-48.05" clip-rule="evenodd"/></svg>