<svg width="49" height="48" viewBox="0 0 49 48" fill="none" xmlns="http://www.w3.org/2000/svg">
<path fill-rule="evenodd" clip-rule="evenodd" d="M23.1909 19.6332L15.938 12.3802L17.7893 10.5289L23.1909 15.9305V8.72729H25.8091V15.9305L31.2107 10.5289L33.0621 12.3802L25.8091 19.6332V22.6909H28.8625L36.1154 15.438L37.9667 17.2893L32.5651 22.6909H39.7728V25.3091H32.5651L37.9667 30.7107L36.1154 32.5621L28.8625 25.3091H25.8091V28.3669L33.0621 35.6198L31.2107 37.4711L25.8091 32.0695V39.2728H23.1909V32.0695L17.7893 37.4711L15.938 35.6198L23.1909 28.3669V25.3091H20.1376L12.8847 32.5621L11.0333 30.7107L16.4349 25.3091H9.22729V22.6909H16.4349L11.0333 17.2893L12.8847 15.438L20.1376 22.6909H23.1909V19.6332Z" fill="white"/>
</svg>
