<svg width="49" height="48" viewBox="0 0 49 48" fill="none" xmlns="http://www.w3.org/2000/svg">
<path fill-rule="evenodd" clip-rule="evenodd" d="M10.1773 35.6621L8.11719 34.9129L16.8855 10.8L18.9456 11.5492L10.1773 35.6621ZM38.8152 35.6622L30.0469 11.5493L32.107 10.8002L40.8753 34.9131L38.8152 35.6622ZM23.3906 15.5588V11.1747H25.5827V15.5588H23.3906ZM23.3906 37.4797V33.0956H25.5827V37.4797H23.3906ZM25.4379 18.172L32.2448 29.2332C32.5621 29.7487 32.4013 30.4238 31.8858 30.7411C31.7131 30.8474 31.5142 30.9037 31.3114 30.9037H17.6976C17.0923 30.9037 16.6016 30.413 16.6016 29.8076C16.6016 29.6048 16.6578 29.4059 16.7642 29.2332L23.571 18.172C23.8883 17.6565 24.5634 17.4957 25.0789 17.813C25.225 17.9029 25.348 18.0259 25.4379 18.172ZM23.3906 27.0673V29.2594H25.5827V27.0673H23.3906ZM23.3906 20.4909V25.9711H25.5827V20.4909H23.3906Z" fill="white"/>
</svg>
