<svg width="48" height="48" viewBox="0 0 48 48" fill="none" xmlns="http://www.w3.org/2000/svg">
<path fill-rule="evenodd" clip-rule="evenodd" d="M24 48C37.2548 48 48 37.2548 48 24C48 10.7452 37.2548 0 24 0C10.7452 0 0 10.7452 0 24C0 37.2548 10.7452 48 24 48Z" fill="#DC362E"/>
<path d="M21.7451 25.2744C21.5862 25.1261 21.5861 24.8738 21.7451 24.7256L26.9951 19.8506C27.2349 19.6272 27.626 19.7973 27.626 20.125L27.626 24.25L34.751 24.25C35.1652 24.25 35.501 24.5858 35.501 25C35.501 25.4142 35.1652 25.75 34.751 25.75L27.626 25.75L27.624 29.875C27.6237 30.2026 27.2328 30.3719 26.9932 30.1484L21.7451 25.2744ZM17.5 18.625C17.5 17.1753 18.6753 16 20.125 16L26.876 16C27.2902 16 27.626 16.3358 27.626 16.75C27.626 17.1642 27.2902 17.5 26.876 17.5L20.125 17.5C19.5037 17.5 19 18.0037 19 18.625L19 31.375C19 31.9963 19.5037 32.5 20.125 32.5L26.876 32.5C27.2902 32.5 27.626 32.8358 27.626 33.25C27.626 33.6642 27.2902 34 26.876 34L20.125 34C18.6753 34 17.5 32.8247 17.5 31.375L17.5 18.625Z" fill="white"/>
</svg>
