<svg width="52" height="52" viewBox="0 0 52 52" fill="none" xmlns="http://www.w3.org/2000/svg">
<path fill-rule="evenodd" clip-rule="evenodd" d="M27.0067 15.1835C28.5696 15.1835 29.8484 13.9047 29.8484 12.3418C29.8484 10.7789 28.5696 9.50012 27.0067 9.50012C25.4438 9.50012 24.165 10.7789 24.165 12.3418C24.165 13.9047 25.4438 15.1835 27.0067 15.1835ZM19.2004 18.441H17.0534L16.2891 19.9698L17.6004 20.7269L19.2004 18.441ZM14.0038 18.651L15.3354 15.5767H21.347C22.0854 15.5767 23.0643 15.7025 24.0665 16.1512C25.1494 16.6361 26.3449 17.5338 26.786 19.157C27.1696 20.5683 27.6951 23.1629 28.3626 26.941L33.3989 29.8732L34.2489 27.8333H37.9155L42.4989 38.8333H29.6655L32.5661 31.8718L11.333 19.5881L12.4065 17.7288L14.0038 18.651ZM25.9981 32.4171L24.1201 29.4503L15.5387 24.4958L11.8823 38.8338H14.999L18.6657 28.4754L22.699 32.7838V38.8338H25.6403L25.9981 32.4171ZM24.926 22.0197L23.4619 24.1112L25.59 25.3399L24.926 22.0197Z" fill="white"/>
</svg>
