<svg width="53" height="53" viewBox="0 0 53 53" fill="none" xmlns="http://www.w3.org/2000/svg">
<path fill-rule="evenodd" clip-rule="evenodd" d="M21.2991 28.6268L27.5391 20.8268H31.7011L25.4611 28.6268H21.2991ZM29.9658 28.6268L36.2058 20.8268H36.9001V25.1614L34.1278 28.6268H29.9658ZM20.4335 33.3934V39.8934H17.8335V33.3934H13.5002C12.3035 33.3934 11.3335 32.4233 11.3335 31.2267V18.2267C11.3335 17.0301 12.3035 16.0601 13.5002 16.0601H39.5002C40.6968 16.0601 41.6668 17.0301 41.6668 18.2267V31.2267C41.6668 32.4233 40.6968 33.3934 39.5002 33.3934H35.1668V39.8934H32.5668V33.3934H20.4335ZM13.9334 18.6601V30.7934H39.0667V18.6601H13.9334ZM16.1001 24.2922L18.8724 20.8268H23.0345L16.7945 28.6268H16.1001V24.2922Z" fill="white"/>
</svg>
