<svg width="53" height="53" viewBox="0 0 53 53" fill="none" xmlns="http://www.w3.org/2000/svg">
<path fill-rule="evenodd" clip-rule="evenodd" d="M24.4858 20.935H18.4242L15.445 26.8933H28.8013C26.5905 25.6665 24.9725 23.501 24.4858 20.935V20.935ZM24.4007 18.2266C24.9338 13.9515 28.5807 10.6433 33.0003 10.6433C37.7868 10.6433 41.667 14.5235 41.667 19.31C41.667 22.9471 39.4265 26.061 36.2503 27.3467V36.9141C36.2503 37.9612 35.4015 38.81 34.3545 38.81C33.3075 38.81 32.4587 37.9612 32.4587 36.9141V35.56H16.2087V36.9141C16.2087 37.9612 15.3599 38.81 14.3128 38.81C13.2658 38.81 12.417 37.9612 12.417 36.9141V26.8933L16.1515 19.4243C16.5185 18.6903 17.2687 18.2266 18.0894 18.2266H24.4007ZM17.5628 32.8516C18.6099 32.8516 19.4587 32.0029 19.4587 30.9558C19.4587 29.9088 18.6099 29.06 17.5628 29.06C16.5158 29.06 15.667 29.9088 15.667 30.9558C15.667 32.0029 16.5158 32.8516 17.5628 32.8516ZM31.1045 32.8516C32.1515 32.8516 33.0003 32.0029 33.0003 30.9558C33.0003 29.9088 32.1515 29.06 31.1045 29.06C30.0575 29.06 29.2087 29.9088 29.2087 30.9558C29.2087 32.0029 30.0575 32.8516 31.1045 32.8516ZM33.0003 25.81C36.5902 25.81 39.5003 22.8998 39.5003 19.31C39.5003 15.7201 36.5902 12.81 33.0003 12.81C29.4105 12.81 26.5003 15.7201 26.5003 19.31C26.5003 22.8998 29.4105 25.81 33.0003 25.81ZM31.917 21.4766H34.0837V23.6433H31.917V21.4766ZM31.917 14.435H34.0837V19.8516H31.917V14.435Z" fill="white"/>
</svg>
