<svg width="49" height="48" viewBox="0 0 49 48" fill="none" xmlns="http://www.w3.org/2000/svg">
<path fill-rule="evenodd" clip-rule="evenodd" d="M24.5 48C37.7548 48 48.5 37.2548 48.5 24C48.5 10.7452 37.7548 0 24.5 0C11.2452 0 0.5 10.7452 0.5 24C0.5 37.2548 11.2452 48 24.5 48Z" fill="#DC362E"/>
<path d="M29.9575 16.4166C30.6724 16.4166 31.2798 16.8713 31.4966 17.5104L33.7495 23.9996V32.6666C33.7495 33.2624 33.2622 33.7495 32.6665 33.7496H31.5825C30.9868 33.7495 30.4995 33.2624 30.4995 32.6666V31.5836H17.4995V32.6666C17.4995 33.2624 17.0122 33.7495 16.4165 33.7496H15.3325C14.7368 33.7495 14.2495 33.2624 14.2495 32.6666V23.9996L16.5024 17.5104C16.73 16.8713 17.3266 16.4166 18.0415 16.4166H29.9575ZM19.1245 25.0836C18.2253 25.0836 17.4995 25.8095 17.4995 26.7086C17.4997 27.6077 18.2254 28.3336 19.1245 28.3336C20.0234 28.3334 20.7494 27.6075 20.7495 26.7086C20.7495 25.8096 20.0235 25.0839 19.1245 25.0836ZM28.8745 25.0836C27.9756 25.0839 27.2505 25.8096 27.2505 26.7086C27.2506 27.6075 27.9757 28.3334 28.8745 28.3336C29.7736 28.3336 30.4994 27.6077 30.4995 26.7086C30.4995 25.8095 29.7737 25.0836 28.8745 25.0836ZM18.4204 18.5836L17.2505 21.9528H30.7378L29.5679 18.5836H18.4204Z" fill="white"/>
</svg>
